<svg width="32" height="32" viewBox="0 0 32 32" fill="none" xmlns="http://www.w3.org/2000/svg">
    <path d="M16.5333 25H21.3333C22.8061 25 24 23.8807 24 22.5V12.3717C24 11.576 23.6629 10.813 23.0627 10.2503L20.533 7.87868C19.9328 7.31607 19.1189 7 18.2702 7H10.6667C9.19391 7 8 8.11929 8 9.5V17" stroke="#007085" stroke-width="1.5" stroke-linecap="round" stroke-linejoin="round"/>
    <path fill-rule="evenodd" clip-rule="evenodd" d="M8.29291 21.9762L11.8298 18.4393C12.1111 18.158 12.4926 18 12.8905 18C13.2883 18 13.6698 18.158 13.9511 18.4393L14.5607 19.0489C15.1464 19.6347 15.1464 20.5844 14.5607 21.1702L11.0237 24.7071C10.8362 24.8946 10.5818 25 10.3166 25H8.5C8.22386 25 8 24.7761 8 24.5V22.6833C8 22.4181 8.10536 22.1638 8.29291 21.9762Z" stroke="#007085" stroke-width="1.5" stroke-linecap="round" stroke-linejoin="round"/>
    <path d="M24 12.5H20.5C19.3954 12.5 18.5 11.6046 18.5 10.5V7" stroke="#007085" stroke-width="1.5" stroke-linecap="round" stroke-linejoin="round"/>
</svg>
